<?xml version="1.0" encoding="UTF-8"?>
<svg id="AntiDDOS" xmlns="http://www.w3.org/2000/svg" viewBox="0 0 1500 1500">
  <defs>
    <style>
      .cls-1 {
        opacity: .2;
      }

      .cls-2 {
        fill: #fff;
      }

      .cls-2, .cls-3, .cls-4, .cls-5 {
        stroke-width: 0px;
      }

      .cls-3 {
        fill: #15cc8f;
      }

      .cls-4 {
        fill: #0a9169;
      }

      .cls-5 {
        fill: #0b6d4d;
      }
    </style>
  </defs>
  <g id="Connections" class="cls-1">
    <path class="cls-4" d="M419.89,1262.17c-21.18,0-38.67-5.23-52.17-15.64-60.09-46.31-25.88-181.73-.15-258.33,40.22-119.71,111.34-254.47,190.24-360.48,143.43-192.71,373.18-370.56,501.7-388.37,30.65-4.25,55.13.49,72.79,14.07,96.38,74.13-29.6,410.12-200.35,633.19-69.34,90.59-159.04,179.69-252.57,250.9-93.98,71.55-179.23,115.35-240.04,123.33-6.79.89-13.27,1.34-19.44,1.34ZM569.34,636.3l11.54,8.59c-77.19,103.71-146.74,235.48-186.05,352.47-39.06,116.27-42.64,200.91-9.56,226.4,11.16,8.6,28.09,11.48,50.32,8.57,117.81-15.45,334.65-181.78,473.52-363.2,80.67-105.39,153.45-240.46,194.7-361.33,40.02-117.26,44.21-206,10.95-231.58-11.33-8.71-28.59-11.53-51.31-8.38-56.53,7.83-140.74,52.35-231.04,122.14-93.83,72.52-183.17,163.05-251.54,254.92l-11.54-8.59Z"/>
    <path class="cls-4" d="M736.4,957.33c-98.2,0-204.43-13.33-301.39-37.95-103.94-26.39-183.26-62.29-223.36-101.08-20.02-19.37-30.33-39.49-30.63-59.81-1.03-69.55,114.86-121.94,184.03-146.99,107.7-38.99,243.51-64.52,363.3-68.31h0c217.83-6.91,473.88,56,559.17,137.32,20.55,19.6,31.13,39.96,31.46,60.51,1.12,70.71-117.69,123.7-188.61,148.99-111.61,39.81-251.69,64.9-374.7,67.13-6.38.12-12.8.17-19.26.17ZM729.26,571.94h0c-116.92,3.7-249.41,28.6-354.42,66.61-102.36,37.05-165.61,82.85-165.06,119.52.18,12.39,7.54,25.7,21.87,39.57,74.84,72.41,302.73,130.93,504.93,130.94,6.22,0,12.39-.06,18.56-.17,120.07-2.18,256.73-26.65,365.57-65.47,105.16-37.5,170.11-84.04,169.52-121.45-.2-12.57-7.79-26.08-22.55-40.16-37.25-35.52-116.06-70.03-216.22-94.69-104.2-25.65-218.64-37.98-322.19-34.7Z"/>
    <path class="cls-4" d="M1085.31,1257.96c-125.29,0-362.78-176.59-512.16-364.78-70.93-89.35-135.45-198.08-181.67-306.17-46.45-108.61-68.12-201.97-61.02-262.88,3.51-30.14,14.06-52.33,31.35-65.96,59.58-46.97,182.56,19.25,250.56,62.91,106.28,68.22,219.6,170.07,303.15,272.46h0c151.88,186.13,268.28,452.33,254.19,581.31-3.36,30.74-13.93,53.34-31.41,67.15-13.8,10.9-31.8,15.96-52.98,15.96ZM415.25,270.58c-14.93,0-26.97,3.34-35.63,10.17-11.07,8.72-17.99,24.44-20.59,46.71-13.76,118.02,94.61,368.9,236.65,547.84,82.51,103.95,195.74,207.5,302.89,277,103.95,67.43,188.98,93.15,221.91,67.14,11.21-8.86,18.16-24.91,20.65-47.71,6.2-56.73-16.42-149.26-62.06-253.86-47.43-108.7-113.42-217.42-185.82-306.15-81.74-100.17-192.54-199.77-296.41-266.44-75.95-48.76-139.99-74.7-181.59-74.7Z"/>
  </g>
  <g id="Server">
    <rect class="cls-4" x="606.89" y="505.39" width="286.23" height="489.22" rx="8" ry="8"/>
    <circle class="cls-2" cx="836.27" cy="568.32" r="26.39"/>
    <g>
      <rect class="cls-5" x="641.45" y="651.55" width="177.62" height="28.42" rx="2" ry="2"/>
      <rect class="cls-5" x="641.45" y="705.85" width="177.62" height="28.42" rx="2" ry="2"/>
      <rect class="cls-5" x="641.45" y="767.76" width="177.62" height="28.42" rx="2" ry="2"/>
      <rect class="cls-5" x="641.45" y="825.62" width="177.62" height="28.42" rx="2" ry="2"/>
    </g>
  </g>
  <g id="Shield">
    <path class="cls-4" d="M1032.12,905.01c-33.46,50.36-140.47,91.74-140.47,91.74,0,0-107.01-41.38-140.47-91.74-2.44-3.67-3.63-8.02-3.63-12.42v-225.9c0-9.63,5.97-18.27,15.02-21.58,29.99-10.97,74.47-22.89,129.08-22.89,28.74,0,75.51,3.3,128.95,22.84,9.09,3.32,15.15,11.96,15.15,21.64v225.89c0,4.4-1.19,8.76-3.63,12.42Z"/>
    <path class="cls-3" d="M891.65,1012.16l-5.19-2.01c-4.54-1.76-111.68-43.64-147.26-97.19-3.94-5.93-6.03-12.98-6.03-20.38v-225.9c0-15.63,9.83-29.73,24.46-35.09,43.1-15.77,88.19-23.77,134.02-23.77s90.85,7.98,133.89,23.72c14.71,5.38,24.59,19.5,24.59,35.14v225.89c0,7.39-2.09,14.44-6.03,20.38h0c-35.58,53.55-142.72,95.44-147.26,97.19l-5.19,2.01ZM891.65,636.59c-42.45,0-84.21,7.41-124.14,22.02-3.34,1.22-5.58,4.47-5.58,8.08v225.9c0,1.69.43,3.28,1.22,4.46,23.96,36.06,96.39,71.11,128.45,84.2,21.22-8.79,101.98-44.23,128.54-84.2h0c.79-1.19,1.23-2.78,1.23-4.47v-225.89c0-3.62-2.3-6.88-5.71-8.13-39.86-14.58-81.58-21.97-124.01-21.97Z"/>
  </g>
</svg>