<?xml version="1.0" encoding="UTF-8"?>
<svg id="Nenalezeno" xmlns="http://www.w3.org/2000/svg" viewBox="0 0 1500 1500">
  <defs>
    <style>
      .cls-1 {
        opacity: .8;
      }

      .cls-2 {
        opacity: .7;
      }

      .cls-3 {
        fill: #0a9169;
        stroke-width: 0px;
      }
    </style>
  </defs>
  <path class="cls-3" d="M516.04,1264.25h-64.39v83.09h-158.56v-83.09H41.75v-103.86l205.64-297.73h167.56l-182.79,274.88h65.78v-74.09h153.71v74.09h64.39v126.71Z"/>
  <g>
    <g class="cls-1">
      <polygon class="cls-3" points="1210.49 747.53 1147.78 783.83 1147.75 783.83 750.41 550.5 749.67 550.94 750.41 472.09 1210.49 747.53"/>
    </g>
    <g class="cls-2">
      <polygon class="cls-3" points="750.41 472.09 749.67 550.94 347.29 783.83 280.01 744.44 750.41 472.09"/>
    </g>
    <polygon class="cls-3" points="1147.75 783.83 745.24 1016.77 749.67 550.94 750.41 550.5 1147.75 783.83"/>
    <g class="cls-1">
      <polygon class="cls-3" points="749.67 550.94 745.24 1016.77 347.29 783.83 749.67 550.94"/>
    </g>
  </g>
  <path class="cls-3" d="M1458.25,554.25h-64.39v83.09h-158.56v-83.09h-251.34v-103.86l205.64-297.73h167.56l-182.79,274.88h65.78v-74.09h153.71v74.09h64.39v126.71Z"/>
</svg>