<?xml version="1.0" encoding="UTF-8"?>
<svg id="Podpora" xmlns="http://www.w3.org/2000/svg" viewBox="0 0 1500 1500">
  <defs>
    <style>
      .cls-1 {
        fill: #fff;
      }

      .cls-1, .cls-2, .cls-3 {
        stroke-width: 0px;
      }

      .cls-2 {
        fill: #15cc8f;
      }

      .cls-3 {
        fill: #0a9169;
      }
    </style>
  </defs>
  <g id="Phone">
    <path class="cls-3" d="M564.04,733.8l-129.42-133.47c-6.27-6.46-16.55-6.72-23.14-.58l-111.15,103.62c-3.85,3.59-5.76,8.77-5.15,13.99,6.94,59.26,36.43,229.97,182.85,372.32,136.51,132.72,293.73,162.1,353.13,169.69,4.93.63,9.88-.99,13.48-4.41l112.99-107.34c6.87-6.52,6.86-17.47-.02-23.98l-135.68-128.54c-6.23-5.9-15.93-6.05-22.34-.36l-81.93,72.76c-4.8,4.26-11.61,5.37-17.5,2.83-32.9-14.14-84.8-41.94-132.44-94.41-43.77-48.2-66.15-97.62-77.62-130.15-2.1-5.96-.67-12.58,3.75-17.1l70.15-71.81c6.26-6.41,6.28-16.63.04-23.06Z"/>
  </g>
  <g id="Clock">
    <g>
      <circle class="cls-3" cx="902.07" cy="543.37" r="282.21"/>
      <path class="cls-2" d="M902.07,846.24c-167,0-302.87-135.87-302.87-302.87s135.87-302.87,302.87-302.87,302.87,135.87,302.87,302.87-135.87,302.87-302.87,302.87ZM902.07,281.82c-144.22,0-261.55,117.33-261.55,261.55s117.33,261.55,261.55,261.55,261.55-117.33,261.55-261.55-117.33-261.55-261.55-261.55Z"/>
    </g>
    <path class="cls-1" d="M1018.48,667.52c-4.99,0-10.02-1.44-14.46-4.45l-118.75-80.44c-8.24-5.58-13.16-14.85-13.16-24.8v-189.35c0-14.26,11.56-25.83,25.83-25.83s25.83,11.56,25.83,25.83v177.84l109.22,73.99c11.81,8,14.9,24.06,6.9,35.87-4.99,7.37-13.13,11.34-21.41,11.34Z"/>
  </g>
</svg>