<?xml version="1.0" encoding="UTF-8"?>
<svg id="Rychlost_Kódu" data-name="Rychlost Kódu" xmlns="http://www.w3.org/2000/svg" viewBox="0 0 1500 1500">
  <defs>
    <style>
      .cls-1 {
        fill: #00ff9d;
      }

      .cls-1, .cls-2, .cls-3, .cls-4, .cls-5, .cls-6 {
        stroke-width: 0px;
      }

      .cls-2 {
        fill: #ff7900;
      }

      .cls-3 {
        fill: #fff;
      }

      .cls-4 {
        fill: #15cc8f;
      }

      .cls-5 {
        fill: #0a9169;
      }

      .cls-6 {
        fill: #ffbc00;
      }
    </style>
  </defs>
  <g id="CodeBlock">
    <g id="Backgound">
      <rect class="cls-5" x="605.18" y="242.04" width="743.19" height="1015.93" rx="8" ry="8"/>
    </g>
    <g id="Lines">
      <rect class="cls-6" x="964.84" y="387.21" width="73.3" height="49.43" rx="2" ry="2"/>
      <rect class="cls-1" x="1054.19" y="387.21" width="73.3" height="49.43" rx="2" ry="2"/>
      <rect class="cls-6" x="964.84" y="945.03" width="73.3" height="49.43" rx="2" ry="2"/>
      <rect class="cls-1" x="1054.19" y="945.03" width="73.3" height="49.43" rx="2" ry="2"/>
      <rect class="cls-3" x="963.14" y="514.77" width="243.75" height="49.43" rx="2" ry="2"/>
      <rect class="cls-1" x="963.14" y="652.41" width="243.75" height="49.43" rx="2" ry="2"/>
      <rect class="cls-3" x="963.14" y="1065.35" width="243.75" height="49.43" rx="2" ry="2"/>
      <rect class="cls-3" x="963.14" y="781.82" width="163.64" height="50.3" rx="2" ry="2"/>
    </g>
  </g>
  <g id="Meter">
    <g>
      <circle class="cls-5" cx="523.94" cy="727.13" r="346.91"/>
      <path class="cls-4" d="M523.94,1099.44c-205.29,0-372.31-167.02-372.31-372.31s167.02-372.31,372.31-372.31,372.31,167.02,372.31,372.31-167.02,372.31-372.31,372.31ZM523.94,405.62c-177.28,0-321.51,144.23-321.51,321.51s144.23,321.51,321.51,321.51,321.51-144.23,321.51-321.51-144.23-321.51-321.51-321.51Z"/>
    </g>
    <path class="cls-2" d="M338.05,781.82h-36.22c0-77.4,21.22-144.63,61.38-194.43,39.21-48.63,93.66-76.01,153.32-77.09,44.1-.79,87.12,10.55,124.33,32.81,40.67,24.33,72.21,60.8,91.21,105.49l-33.33,14.18c-37.2-87.46-118.22-117.38-181.56-116.25-105.47,1.9-179.13,98.66-179.13,235.3Z"/>
    <path class="cls-3" d="M723.36,639.77c-21.13,4.74-217.58,50.26-230.69,126.14-1.42,8.24-5.92,34.28,9.09,51.14,14.87,16.7,40.83,15.36,52.27,14.77,79.79-4.11,172.4-145.93,185.23-165.91,5.29-6.79,5.05-16,0-21.59-3.82-4.22-9.97-5.91-15.91-4.55Z"/>
  </g>
</svg>