<?xml version="1.0" encoding="UTF-8"?>
<svg id="Umístění" xmlns="http://www.w3.org/2000/svg" viewBox="0 0 1500 1500">
  <defs>
    <style>
      .cls-1 {
        fill: #fff;
      }

      .cls-1, .cls-2, .cls-3, .cls-4 {
        stroke-width: 0px;
      }

      .cls-2 {
        fill: #15cc8f;
      }

      .cls-3 {
        fill: #0a9169;
      }

      .cls-4 {
        fill: #0b7753;
      }
    </style>
  </defs>
  <g id="Earth">
    <path class="cls-3" d="M354.07,822.34c0-40.48,5.52-79.67,15.85-116.86,51.07-183.84,219.66-318.77,419.77-318.77,240.59,0,435.62,195.03,435.62,435.62s-195.03,435.62-435.62,435.62-435.62-195.03-435.62-435.62Z"/>
    <path class="cls-1" d="M751.68,802.45l-5.62-5.41-5.12.44-3.66.31.5,5.85.63,7.31.56,6.58.44,5.12-5.85.5-5.85.5-3.95,5.49.38,4.39-3.95,5.49-.9,6.7-7.31.63-7.31.63-4.39.38-3.95,5.49-2.61,3.91-4.39.38-12.43,1.06-4.39.38-4.03-4.07-.38-4.39,2.61-3.91c-6.04-1.69-12.13-4.12-12.13-4.12l-5.43-3.22s-3.43-5.6-4.19-5.9-.34-4.02-.34-4.02l-6.7-.9s-6.45,2.03-6.64-.17l-.5-5.85-4.51-1.09-3.53,1.78-7.56-2.3c-.44-5.12-.81-9.5-.81-9.5,0,0-3.66.31-6.1-2.42-2.44-2.74-6.95-3.82-6.95-3.82l-4.45-.36-4.09-4.8s-.25-2.92-2.63-4.93-6.29-4.62-6.29-4.62l-.38-4.39-4.39.38-3.97-3.34-5.12.44-3.66.31-3.66.31s2.67-3.17-.44-5.12-6.89-3.09-6.89-3.09l-6.04-1.69-.44-5.12-.56-6.58-4.95-6.2-2.69-5.66-5.14-8.4-5.31-1.75s2.07-1.65-.31-3.66l-2.38-2.01,2.62-3.74,1.74-5.47,4.37-9.21-3.43-5.6s-.86-1.4-2.51-3.47c-1.65-2.07-2.44-2.74-5.49-3.95s-9.15-3.63-9.15-3.63l-6.95-3.82-.31-3.66-.5-5.85s-.98-2.86-3.36-4.87l-2.38-2.01-4.09-4.8-.5-5.85-.38-4.39,4.76,4.01,3.36,4.87,4.03,4.07,4.8-4.09,3.34-3.97,1.63-6.77,3.28-4.7,4.68-5.56s.86,1.4,3.66-.31c2.8-1.71,4.2-2.57,5.85-.5l1.65,2.07,5.95-7.87,5.66-2.69,6.83,2.36.38,4.39s5.24,1.02,5.72-1.96l.96-5.97-.56-6.58s4.26-1.84,5.12-.44l.86,1.4,6.4-2.68,2.35-6.91,5.12-.44,1.02-5.24s.71-8.9,3.22-5.43l2.51,3.47,5.97.96,1.68-6.2,1.77-5.15,12.43-1.06,6.58-.56,5.85-.5s1.09-4.51.9-6.7l-.19-2.19,12.43-1.06,7.31-.63s3.28-4.7,5.95-7.87c2.67-3.17,4.01-4.76,6.2-4.95s5.79-1.23,5.79-1.23l-3.43-5.6-5.97-.96-1.78-3.53,4.01-4.76s3.47-2.51,5.85-.5,5.49,3.95,5.49,3.95l5.85-.5,4.03,4.07,1.23,5.79s3.47-2.51,3.78,1.15l.31,3.66,2.63,4.93s.92,2.13,3.84,1.88,6.33-3.49,6.33-3.49l1.15-3.78s3.78,1.15,6.77,1.63c2.99.48,8.1.04,8.1.04l-.69-8.04-.31-3.66-1.04-3.59-3.66.31s-3.24-3.4-.31-3.66,7.12-2.82,8.1.04,4.09,4.8,4.09,4.8l6.39-2.76,9.82,2.84s2.32,1.27.31,3.66c-2.01,2.38,1.54,6.5,1.54,6.5l3.85,4.83.38,4.39,5.24,1.02,4.87-3.36,6.22,3.89,12.07,3.38,3.47-2.51s4.26-1.84,3.97,3.34c-.29,5.18.83,8.77.83,8.77l10.21-.14,4.03,4.07,6.27-4.22,6.22,3.89,3.09-6.89s-4.16-5.54,4.45.36c8.6,5.89,14.7,8.31,14.7,8.31,0,0,5.24,1.02.31,3.66-4.93,2.63-7.67,5.07-7.67,5.07,0,0-2.92.25-4.99,1.9s-4.87,3.36-4.87,3.36l1.23,5.79,6.77,1.63s4.03,4.07,4.22,6.27,4.57,1.82,4.57,1.82c4.03,4.07,3.65,6.31,5.95,8.33s4.87,6.21,4.87,6.21l5.62,5.41s2.38,2.01,4.57,1.82l5.12-.44,4.07-4.03,3.22-5.43s2.67-3.17,6.33-3.49l3.66-.31,4.14-3.3s-3.3-4.14-4.82-4.74l-1.52-.61-3.43-5.6-.31-3.66-4.7-3.28s.96-5.97,5.54-4.16c4.57,1.82,2.44,2.74,7.69,3.76s11.82.46,11.82.46c3.24,3.4,4.34,7.73,4.34,7.73l5.24,1.02,4.82,4.74,5.91.23s5.85-.5,8.77-.75c2.92-.25,6.58-.56,6.58-.56l3.09-6.89.75,8.77,6.04,1.69-4.01,4.76-4.99,1.9,1.29,6.52,8.9.71c1.96,5.72,4.47,9.19,4.47,9.19,0,0,6.16,3.15,8.35,2.97l2.19-.19,6.33-3.49s-1.23-5.79-.5-5.85l4.95,6.2,8.84-.02,4.16,5.54,4.64,2.55,2.61-3.91,6.64.17.31,3.66,8.58-2.94.44,5.12.65,7.55,3.54,6.98,5.85-.5,6.27,4.46,3.53-1.78,4.41,8.46.56,6.58-7,4.28-6.7-.9-7.44-.84-.1,7.37-4.68,5.56-8.04.69,2.09,7.19-9.32,3.01-8.04.69.56,6.58-.17,6.64-4.74,4.82,1.17,5.05-3.34,3.97-8.65,2.21-1.69,6.04-1.09,4.51-6.39,2.76-4.87,3.36-4.14,3.3-6.39,2.76-8.65,2.21-6.58.56-7.56-2.3-4.89-5.47-3.76,7.69-4.99,1.9-3.09,6.89-2.88,5.03.31,3.66-2.43,1.68-.32,4.81-3.26.65-1.72-7.22-3.21-3.04-5.57,3.79-6.04-1.69-4.46-4.77-3.66.31-6.98.23-2.75-1.97-.69,4.85-4.68,5.56-2.99-.48-.91,2.29-4.39.38-11.7,1-6.74-1.26-7.96-2.63-.71-3.99-3.84-1.88-3.14-2.31-4.02.34-1.94,3.11-5.91-.23-5.92-4.65-5.48.47-4.72-2.91-2.57-.52-6.46-2.39-3.96,1.08-2.26-.54-.39,4.08h-4.42s-.85,3.03-.85,3.03Z"/>
    <path class="cls-4" d="M389.68,722.23c1.96,2.61,13.73,18.95,13.73,18.95l7.19,16.34v13.73l-5.88,21.57s-3.92,12.42-1.31,29.41c2.61,16.99,5.23,22.22,10.46,30.72,5.23,8.5,15.03,16.34,20.26,25.49,5.23,9.15,7.84,7.84,16.99,24.84,9.15,16.99,16.34,25.49,20.92,37.26,4.58,11.76,4.58,13.73,9.15,31.37,4.58,17.65,15.03,36.6,15.03,36.6l11.76,23.53-6.74,15.03s-5.24,3.92-14.94,4.58-21.46-3.27-21.46-3.27l-12.42-7.84-8.5,11.11s6.54,5.23,9.8,12.42c3.27,7.19,7.84,16.99,7.19,24.84-.65,7.84-6,12.19-6,12.19l-51.51-48.79-30.72-44.45s-3.27-19.61-9.8-43.14c-6.54-23.53-18.95-40.52-19.61-57.52-.65-16.99-.65-41.18-.65-41.18,0,0-1.96-32.68-2.61-59.48-.65-26.8,0-65.36,0-65.36l13.07-37.26,16.84,1.56,15.19,6.47,4.58,10.28Z"/>
    <path class="cls-4" d="M1212.29,749.68h-24.02l-17.81,14.38-5.23,18.3,1.31,24.84-22.22,15.14c-10.46-.76-20.92-3.38-22.22-8.61-1.31-5.23-3.92-11.76-5.23-16.99s-1.31-7.84-9.15-9.15-16.99-2.61-22.22,7.84-9.15,10.46-6.54,22.22c2.61,11.76,13.07,18.3,13.07,18.3l-3.92,22.61h-45.75l-13.07,21.83,15.69,14.38,14.38,7.73s6.54.11-1.31,5.34c-7.84,5.23-15.69,10.46-15.69,10.46,0,0-11.76,3.92-13.07,7.84-1.31,3.92,0,11.76,0,11.76l7.84,5.23-7.84,10.46s-9.15,3.92-14.38,13.07c-5.23,9.15-9.15,14.38-5.23,16.99,3.92,2.61,19.61,6.54,19.61,6.54l14.38-13.07,6.54,19.61-10.46,19.61-24.84,16.99v13.07l22.22,15.69,23.53-1.31s3.92,6.54-5.23,16.99c-9.15,10.46-26.14,23.3-26.14,23.3,0,0-23.53,8.92-27.45,0-3.92-8.92-9.15-22-19.61-15.46-10.46,6.54-26.14,19.61-27.45,28.76-1.31,9.15,3.92,9.15,7.84,19.61,3.92,10.46,10.46,19.61,10.46,19.61,0,0-1.31,5.23-7.84,7.84-6.54,2.61-26.14,11.76-35.29,24.84-9.15,13.07-14.38,16.99-14.38,16.99,0,0-1.31,6.54,0,13.07,1.31,6.54,4.32,10.81,4.32,10.81h49.28l39.22-9.5,56.21-20.92s26.14-18.3,37.91-31.37c11.76-13.07,23.53-22.22,36.6-40.52,13.07-18.3,23.53-26.14,33.99-43.14,10.46-16.99,31.37-45.75,31.37-45.75l33.99-57.52s9.15-30.07,13.07-61.44c3.92-31.37,5.23-31.37,5.23-69.28s-7.84-62.75-7.84-62.75l-24.84-35.29h-11.76Z"/>
    <path class="cls-4" d="M695.57,386.72l-10.45,12.66s-9.16,10.43-1.31,15.66c7.84,5.23,27.45,7.84,27.45,7.84l27.45-6.54,21.79,3.92,5.66,16.99,7.84,11.79,37.91,11.74s19.61-10.46,24.84-20.92c5.23-10.46,5.23-20.92,18.3-19.61,13.07,1.31,45.75,11.76,45.75,11.76,0,0,16.99,11.76,23.53-3.92,6.54-15.69,6.54-28.76,6.54-28.76,0,0-2.61-9.15-14.38-10.46-11.76-1.31-9.15,1.31-28.76-3.92-19.61-5.23-37.91-9.5-43.14-13.9-5.23-4.4-24.84-8.32-24.84-8.32l-30.07,8.32h-57.52s-23.53-.83-28.76,0c-5.23.83-7.84,15.65-7.84,15.65Z"/>
  </g>
  <path id="Pointer" class="cls-2" d="M629.61,651.2l-212.84-358.88c-.28-.48-.59-.96-.94-1.43-43.8-58.69-127.17-63.43-172.04-20.02-39.8,38.5-43.65,109.39-1.59,157.86,1.04,1.2,2.3,2.2,3.65,3.02l379.4,223.84c2.85,1.69,6.06-1.54,4.37-4.39ZM313.86,371.06c-20.95,0-37.91-16.98-37.91-37.91s16.96-37.93,37.91-37.93,37.91,16.98,37.91,37.93-16.96,37.91-37.91,37.91Z"/>
</svg>