<?xml version="1.0" encoding="UTF-8"?>
<svg id="VPS_Featured" data-name="VPS Featured" xmlns="http://www.w3.org/2000/svg" viewBox="0 0 1500 1500">
  <defs>
    <style>
      .cls-1 {
        fill: none;
        stroke: #0092e6;
        stroke-miterlimit: 10;
        stroke-width: 80px;
      }
    </style>
  </defs>
  <polyline class="cls-1" points="364.51 1064.65 750 1287.21 1135.49 1064.65 1140.35 1061.85"/>
  <polyline class="cls-1" points="284.76 603.93 284.76 481.39 750 212.79 1215.24 481.39 1215.24 603.93"/>
  <line class="cls-1" x1="316.56" y1="1064.65" x2="1176.56" y2="1064.65"/>
  <circle class="cls-1" cx="1176.5" cy="832.68" r="231.97"/>
  <path class="cls-1" d="M461.36,646.1c-38.54-28.52-86.23-45.39-137.86-45.39-128.12,0-231.97,103.86-231.97,231.97s103.85,231.97,231.97,231.97"/>
  <path class="cls-1" d="M746.56,1064.65c-93.55,0-177.49-46.48-234.67-111.69-48.15-54.9-77.33-126.85-77.33-205.61,0-35.44,5.91-69.5,16.8-101.25,42.04-122.61,158.33-210.75,295.2-210.75s252.01,87.27,294.57,208.93"/>
</svg>